<?xml version="1.0" encoding="iso-8859-1"?>
<!-- Generator: Adobe Illustrator 16.0.3, SVG Export Plug-In . SVG Version: 6.00 Build 0)  -->
<!DOCTYPE svg PUBLIC "-//W3C//DTD SVG 1.1//EN" "http://www.w3.org/Graphics/SVG/1.1/DTD/svg11.dtd">
<svg version="1.1" id="&#x30EC;&#x30A4;&#x30E4;&#x30FC;_1"
	 xmlns="http://www.w3.org/2000/svg" xmlns:xlink="http://www.w3.org/1999/xlink" x="0px" y="0px" width="64px" height="64px"
	 viewBox="0 0 64 64" style="enable-background:new 0 0 64 64;" xml:space="preserve">
<g>
	<path style="fill-rule:evenodd;clip-rule:evenodd;fill:#333333;" d="M31.869,0C14.2,0.074-0.072,14.463,0,32.132
		C0.074,49.8,14.463,64.073,32.132,64C49.8,63.927,64.073,49.537,64,31.869C63.927,14.2,49.537-0.072,31.869,0z M32.108,58.286
		C17.594,58.345,5.774,46.623,5.715,32.108C5.655,17.594,17.378,5.774,31.892,5.715s26.334,11.664,26.394,26.177
		C58.345,46.406,46.623,58.226,32.108,58.286z"/>
	<path style="fill-rule:evenodd;clip-rule:evenodd;fill:#333333;" d="M18.023,22.857h-4.309v18.286h4.571V28.48
		c0.548-0.708,1.2-1.245,1.908-1.623c0.72-0.377,1.486-0.571,2.275-0.571c0.583,0,1.085,0.125,1.497,0.354
		c0.411,0.24,0.731,0.605,0.948,1.131c0.068,0.251,0.137,0.538,0.172,0.857c0.034,0.32,0.057,0.709,0.057,1.143v11.372h4.571v-12
		c0-0.548-0.034-1.326-0.068-1.748c-0.034-0.412-0.125-0.8-0.24-1.166c-0.206-0.64-0.514-1.188-0.891-1.657
		c-0.366-0.469-0.8-0.834-1.28-1.143c-0.503-0.286-1.041-0.502-1.623-0.64c-0.594-0.148-1.2-0.217-1.84-0.217
		c-0.685,0-1.302,0.091-1.897,0.229c-0.583,0.159-1.12,0.376-1.611,0.628c-0.492,0.252-0.926,0.549-1.303,0.88
		c-0.388,0.331-0.697,0.674-0.937,1.017v-1.094V22.857z"/>
	<path style="fill-rule:evenodd;clip-rule:evenodd;fill:#333333;" d="M44.834,41.395c0.754-0.16,1.429-0.4,2.046-0.697
		c0.605-0.309,1.12-0.674,1.565-1.108c0.445-0.423,0.8-0.915,1.085-1.451c0.503-0.926,0.754-2.069,0.754-3.429V22.857h-4.571v10.949
		c0,0.96-0.137,1.714-0.388,2.251c-0.275,0.571-0.663,0.983-1.178,1.246c-0.525,0.286-1.143,0.411-1.863,0.411
		c-0.697,0-1.28-0.103-1.783-0.354s-0.891-0.628-1.166-1.143c-0.171-0.286-0.297-0.628-0.377-1.04
		c-0.069-0.411-0.103-0.891-0.103-1.463V22.857h-4.571v11.852c0,0.754,0.068,1.451,0.229,2.08c0.148,0.617,0.376,1.189,0.697,1.691
		c0.595,0.972,1.463,1.737,2.651,2.309c1.178,0.571,2.64,0.857,4.423,0.857C43.211,41.646,44.069,41.566,44.834,41.395z"/>
</g>
</svg>
